<svg width="260" height="260" viewBox="0 0 260 260" xmlns="http://www.w3.org/2000/svg">
  <rect width="260" height="260" rx="26" fill="#F7F7F7"/>
  <ellipse cx="140" cy="130" rx="74" ry="84" fill="#F3F3F3" stroke="#111" stroke-width="5"/>
  <path d="M98 54 C103 27,142 21,163 47" fill="none" stroke="#8D0F2D" stroke-width="15" stroke-linecap="round"/>
  <ellipse cx="100" cy="48" rx="26" ry="22" fill="#8D0F2D"/>
  <ellipse cx="181" cy="58" rx="17" ry="22" fill="#8D0F2D"/>
  <circle cx="117" cy="124" r="8" fill="#111"/>
  <circle cx="156" cy="124" r="8" fill="#111"/>
  <ellipse cx="104" cy="135" rx="13" ry="9" fill="#F6B39D"/>
  <ellipse cx="168" cy="135" rx="13" ry="9" fill="#F6B39D"/>
  <path d="M122 153 Q138 164 157 151" fill="none" stroke="#111" stroke-width="5" stroke-linecap="round"/>
  <path d="M192 146 Q221 124 233 154 Q223 174 194 168" fill="#fff" stroke="#111" stroke-width="5"/>
  <path d="M205 150 Q217 146 222 157 Q217 167 205 167" fill="none" stroke="#8D0F2D" stroke-width="3"/>
  <rect x="30" y="121" width="56" height="98" rx="12" transform="rotate(-20 30 121)" fill="#F9E5D8" stroke="#111" stroke-width="5"/>
  <path d="M48 132 L72 123 L77 140 L53 149 Z" fill="#8D0F2D"/>
  <path d="M49 157 L73 148 L77 165 L53 174 Z" fill="#B9D596"/>
  <path d="M53 183 L80 173" stroke="#8D0F2D" stroke-width="4"/>
  <circle cx="77" cy="138" r="7" fill="#fff" stroke="#8D0F2D" stroke-width="3"/>
  <path d="M150 178 Q172 188 178 212" fill="none" stroke="#111" stroke-width="5"/>
  <path d="M178 212 Q200 220 206 202" fill="none" stroke="#8D0F2D" stroke-width="11" stroke-linecap="round"/>
  <path d="M118 198 Q102 221 88 238" stroke="#111" stroke-width="5"/>
  <ellipse cx="84" cy="240" rx="20" ry="10" fill="#8D0F2D"/>
  <path d="M165 196 Q174 219 190 236" stroke="#111" stroke-width="5"/>
  <ellipse cx="194" cy="236" rx="17" ry="10" fill="#8D0F2D"/>
  <text x="140" y="258" text-anchor="middle" font-family="Arial, sans-serif" font-size="15" fill="#8D0F2D" font-weight="700">KW Mascot Navigator</text>
</svg>
